<?xml version="1.0" encoding="utf-8"?>
<svg viewBox="0 0 1080 1080" xmlns="http://www.w3.org/2000/svg">
  <defs>
    <style>@media (prefers-color-scheme: light) { :root { filter: none; } }
</style>
  </defs>
  <svg xmlns="http://www.w3.org/2000/svg" version="1.1" width="1080" height="1080" viewBox="0 0 1080 1080">
    <desc>Created with Fabric.js 5.2.4</desc>
    <defs/>
    <g transform="matrix(1 0 0 1 540 540)" id="SvgjsG1002"/>
    <g transform="matrix(1 0 0 1 540 540)" id="SvgjsG1001"/>
    <g transform="matrix(NaN NaN NaN NaN 0 0)">
      <g style=""/>
    </g>
    <g transform="matrix(NaN NaN NaN NaN 0 0)">
      <g style=""/>
    </g>
    <g transform="matrix(7.16 0 0 7.16 540 540)">
      <g style="" vector-effect="non-scaling-stroke">
        <g transform="matrix(0.98 0 0 0.98 32.2 0)">
          <path style="stroke: none; stroke-width: 1; stroke-dasharray: none; stroke-linecap: butt; stroke-dashoffset: 0; stroke-linejoin: miter; stroke-miterlimit: 4; fill: rgb(235,116,59); fill-rule: nonzero; opacity: 1;" vector-effect="non-scaling-stroke" transform=" translate(-96.5, -72)" d="M 66 0 L 66 144 L 127 109 L 127 35 z" stroke-linecap="round"/>
        </g>
        <g transform="matrix(0.98 0 0 0.98 -32.2 0)">
          <path style="stroke: none; stroke-width: 1; stroke-dasharray: none; stroke-linecap: butt; stroke-dashoffset: 0; stroke-linejoin: miter; stroke-miterlimit: 4; fill: rgb(186,71,143); fill-rule: nonzero; opacity: 1;" vector-effect="non-scaling-stroke" transform=" translate(-30.5, -72)" d="M 61 60 L 60 59 L 60 54 L 61 53 L 61 41 L 60 41 L 60 20 L 61 19 L 61 0 L 0 35 L 0 109 L 61 144 z" stroke-linecap="round"/>
        </g>
        <g transform="matrix(0.98 0 0 0.98 -25.34 -8.06)">
          <path style="stroke: none; stroke-width: 1; stroke-dasharray: none; stroke-linecap: butt; stroke-dashoffset: 0; stroke-linejoin: miter; stroke-miterlimit: 4; fill: rgb(0,0,0); fill-rule: nonzero; opacity: 0.07;" vector-effect="non-scaling-stroke" transform=" translate(-41.88, -66.59)" d="M 65.33 55.86 L 38.33 71.86 L 38.33 60.21 L 65.33 44 L 65.33 21.41 L 32.809999999999995 40.68 L 32.74999999999999 40.68 C 32.65945861574613 40.74147207894737 32.572639762229855 40.808255812421436 32.489999999999995 40.88 L 32.279999999999994 41.050000000000004 C 32.213028801257494 41.120111039814866 32.1496158246626 41.19353659166159 32.089999999999996 41.27 C 32.029999999999994 41.34 31.959999999999997 41.410000000000004 31.909999999999997 41.49 C 31.855217296663785 41.570368742069114 31.805133500255703 41.65384173608258 31.759999999999998 41.74 C 31.712498317117554 41.821098695972374 31.669110056659502 41.9045376583917 31.63 41.99 C 31.63 42.080000000000005 31.56 42.17 31.529999999999998 42.27 C 31.498756368916286 42.35858008175205 31.472054956678708 42.448697348053884 31.45 42.540000000000006 C 31.445250602034026 42.6299373422749 31.445250602034026 42.720062657725116 31.45 42.81000000000001 C 31.44430705991526 42.91659070674447 31.44430705991526 43.023409293255554 31.45 43.13000000000001 L 31.45 43.21000000000001 L 31.45 93.82000000000001 C 28.62487945139592 93.42409020430537 25.756442933147298 94.14119933386752 23.45 95.82000000000001 C 18.61 99.04 16.97 105.10000000000001 19.45 108.82000000000001 C 21.93 112.54 27.64 112.72000000000001 32.45 109.50000000000001 C 35.21 107.66000000000001 37.830000000000005 105.43 38.45 102.82000000000002 C 38.51297396908199 102.15482047862659 38.51297396908199 101.48517952137347 38.45 100.82000000000002 C 38.45 100.68000000000002 38.45 100.54000000000002 38.45 100.40000000000002 L 38.45 78.82000000000002 L 65.45 62.67000000000002 z" stroke-linecap="round"/>
        </g>
        <g transform="matrix(0.99 0 0 0.98 -25.31 -5.49)">
          <path style="stroke: none; stroke-width: 0.992373; stroke-dasharray: none; stroke-linecap: butt; stroke-dashoffset: 0; stroke-linejoin: miter; stroke-miterlimit: 4; fill: rgb(157,53,109); fill-rule: nonzero; opacity: 1;" vector-effect="non-scaling-stroke" transform=" translate(-38.92, -66.39)" d="M 62.002894 56 L 35.413168 72 L 35.413168 60 L 62.002894 44 L 62.002894 21 L 29.986894999999997 40.69 L 29.927804999999996 40.69 C 29.83863915304999 40.75147205292779 29.753139277688383 40.818255786856014 29.671754999999997 40.89 L 29.464945999999998 41.06 C 29.398968117445445 41.13008833324815 29.336517923896267 41.20351517161672 29.277834 41.28 C 29.218743999999997 41.35 29.149808999999998 41.42 29.100569 41.5 C 29.046637120871146 41.58038074709345 28.99731491633844 41.66385263757061 28.952848 41.75 C 28.952848 41.83 28.854368 41.91 28.824823 42 C 28.795282999999998 42.09 28.755882999999997 42.18 28.726343 42.28 C 28.695607950175535 42.36859081105093 28.66931422594871 42.45870639294028 28.647563 42.550000000000004 C 28.642903995437 42.63993782960782 28.642903995437 42.730062170392195 28.647563 42.82000000000001 C 28.64195656622726 42.92659070674447 28.64195656622726 43.03340929325555 28.647563 43.14000000000001 L 28.647563 43.220000000000006 L 28.647563 93.83000000000001 C 25.865370887241124 93.4340899571779 23.040520932443087 94.15119909855797 20.769125 95.83000000000001 C 16.002671000000003 99.05000000000001 14.387591000000002 105.11000000000001 16.829907000000002 108.83000000000001 C 19.272222000000003 112.55000000000001 24.895457 112.73000000000002 29.632367000000002 109.51000000000002 C 32.350428 107.67000000000002 34.930616 105.44000000000003 35.541195 102.83000000000001 C 35.603212055583654 102.16482047862658 35.603212055583654 101.49517952137346 35.541195 100.83000000000001 C 35.541195 100.69000000000001 35.541195 100.55000000000001 35.541195 100.41000000000001 L 35.541195 79.01000000000002 L 62.13092 63.01000000000002 z" stroke-linecap="round"/>
        </g>
        <g transform="matrix(0.99 0 0 0.98 -25.34 -8.35)">
          <path style="stroke: none; stroke-width: 0.992373; stroke-dasharray: none; stroke-linecap: butt; stroke-dashoffset: 0; stroke-linejoin: miter; stroke-miterlimit: 4; fill: rgb(255,254,219); fill-rule: nonzero; opacity: 1;" vector-effect="non-scaling-stroke" transform=" translate(-38.89, -63.48)" d="M 62.002894 53 L 35.413168 69 L 35.413168 57 L 62.002894 41 L 62.002894 18 L 29.957350999999996 37.86 L 29.898260999999994 37.86 C 29.809095495285618 37.92147208589861 29.72359595457945 37.988255819251336 29.642211999999994 38.06 L 29.435402999999994 38.230000000000004 C 29.369449412298625 38.30011103699087 29.306999979154035 38.373536588886296 29.248289999999994 38.45 C 29.189199999999992 38.52 29.120265999999994 38.59 29.071025999999993 38.67 C 29.017075635756562 38.75036873446684 28.967752779071976 38.83384172863251 28.923304999999992 38.92 C 28.876524987403613 39.00109868770682 28.833795894677277 39.08453765026557 28.79527999999999 39.17 C 28.79527999999999 39.260000000000005 28.72633999999999 39.35 28.696799999999993 39.45 C 28.666032603398055 39.538580163905685 28.639738388003902 39.62869742915603 28.618019999999994 39.720000000000006 C 28.613342770805826 39.8099373422749 28.613342770805826 39.900062657725115 28.618019999999994 39.99000000000001 C 28.612413566227254 40.09659070674447 28.612413566227254 40.203409293255554 28.618019999999994 40.31000000000001 L 28.618019999999994 40.39000000000001 L 28.618019999999994 91 C 25.835828215269256 90.6040902290181 23.01097867023445 91.32119935739847 20.739582999999996 93 C 15.973128999999997 96.22 14.358048999999996 102.28 16.800364999999996 106 C 19.242679999999996 109.72 24.865914999999994 109.9 29.602824999999996 106.68 C 32.320885999999994 104.84 34.901073999999994 102.61000000000001 35.511652999999995 100 C 35.57367005558365 99.33482047862657 35.57367005558365 98.66517952137345 35.511652999999995 98 C 35.511652999999995 97.86 35.511652999999995 97.72 35.511652999999995 97.58 L 35.511652999999995 76 L 62.10137399999999 60 z" stroke-linecap="round"/>
        </g>
        <g transform="matrix(0.98 0 0 0.98 25.69 30.03)">
          <path style="stroke: none; stroke-width: 1; stroke-dasharray: none; stroke-linecap: butt; stroke-dashoffset: 0; stroke-linejoin: miter; stroke-miterlimit: 4; fill: rgb(0,0,0); fill-rule: nonzero; opacity: 0.07;" vector-effect="non-scaling-stroke" transform=" translate(-94.18, -105.48)" d="M 87.66 94.56 C 88.17388645798532 93.69460630297021 89.22745265799428 93.31263850369572 90.17653777102976 93.64763550483755 C 91.12562288406522 93.98263250597938 91.70597907932867 94.94132318816173 91.56277082028585 95.9375545554161 C 91.41956256124303 96.93378592267047 90.59266242758648 97.69018350757057 89.58764536618665 97.74427832113732 C 88.58262830478681 97.79837313470408 87.67931492892994 97.13510389639885 87.42999999999999 96.16 C 87.29011032914491 95.61734189229769 87.37291907035488 95.0412810838804 87.66 94.56 z M 100.25999999999999 116.92 C 99.8800820723875 117.25016158617174 99.39333135511477 117.43136075829517 98.88999999999999 117.43 C 98.00179541933758 117.43684306437626 97.2044123043824 116.88671034023994 96.89547952272211 116.05393501576438 C 96.58654674106182 115.22115969128882 96.83222396421289 114.28408522882276 97.50999999999999 113.71000000000001 C 97.88991792761249 113.37983841382827 98.37666864488521 113.19863924170484 98.88 113.2 C 99.46937219818774 113.20109905953876 100.03168583160262 113.44749562014094 100.43199722269613 113.88005958776806 C 100.83230861378964 114.31262355539516 101.03448202271896 114.89230777988529 100.99 115.48 C 100.94936592661217 116.03840206899686 100.68638772031089 116.557153599235 100.25999999999999 116.92 z" stroke-linecap="round"/>
        </g>
        <g transform="matrix(0.98 0 0 0.98 11.33 -25.85)">
          <path style="stroke: none; stroke-width: 1; stroke-dasharray: none; stroke-linecap: butt; stroke-dashoffset: 0; stroke-linejoin: miter; stroke-miterlimit: 4; fill: rgb(0,0,0); fill-rule: nonzero; opacity: 0.07;" vector-effect="non-scaling-stroke" transform=" translate(-79.47, -48.43)" d="M 79.36 48.43 L 79.57 48.43 z" stroke-linecap="round"/>
        </g>
        <g transform="matrix(0.98 0 0 0.98 25.44 -26.28)">
          <path style="stroke: none; stroke-width: 1; stroke-dasharray: none; stroke-linecap: butt; stroke-dashoffset: 0; stroke-linejoin: miter; stroke-miterlimit: 4; fill: rgb(0,0,0); fill-rule: nonzero; opacity: 0.07;" vector-effect="non-scaling-stroke" transform=" translate(-93.92, -47.99)" d="M 90.73 58.08 C 90.8997360915491 57.81150764554647 91.12898572267235 57.585679650708634 91.4 57.42 C 92.16134906460799 56.95434611258382 93.13332269607743 57.01805323385149 93.8273775911233 57.579100240534636 C 94.52143248616916 58.14014724721779 94.78744415263095 59.0771793335832 94.49170709270713 59.919215872239846 C 94.1959700327833 60.76125241089649 93.40245235079962 61.32616039097054 92.51 61.33 C 92.11297791149595 61.32808543621822 91.7246321777517 61.21366213966857 91.39 61 C 90.40777262220023 60.37143871378279 90.11358863571672 59.06989744024968 90.73 58.08 z M 97.11 37.89 C 96.47539567669388 38.85797279144876 95.18616669444609 39.14594490088555 94.2 38.54 L 94.10000000000001 38.48 C 93.33548500723619 37.931682700887876 93.02635613487008 36.94345712422722 93.34212348715639 36.057214485952365 C 93.65789083944267 35.1709718476775 94.52225368975012 34.600860180453445 95.46124066249025 34.659498902221515 C 96.40022763523038 34.718137623989584 97.1869457732986 35.3913575147616 97.39000000000001 36.309999999999995 C 97.51174905890156 36.85291811202588 97.41090227199956 37.42198212383 97.11000000000001 37.88999999999999 z" stroke-linecap="round"/>
        </g>
        <g transform="matrix(0.98 0 0 0.98 46.66 0.66)">
          <path style="stroke: none; stroke-width: 1; stroke-dasharray: none; stroke-linecap: butt; stroke-dashoffset: 0; stroke-linejoin: miter; stroke-miterlimit: 4; fill: rgb(0,0,0); fill-rule: nonzero; opacity: 0.07;" vector-effect="non-scaling-stroke" transform=" translate(-115.66, -75.49)" d="M 113.88 49.49 C 114.50408176730879 48.50417172155204 115.80917172155203 48.210918232691206 116.79499999999999 48.835 C 117.78082827844796 49.4590817673088 118.07408176730878 50.76417172155203 117.44999999999999 51.75 C 116.81539567669387 52.71797279144876 115.52616669444608 53.00594490088555 114.53999999999999 52.4 L 114.44999999999999 52.339999999999996 C 113.52709677905 51.69615811107476 113.27572083024818 50.43927836706559 113.88 49.489999999999995 z M 113.88 72.95 C 114.50408176730879 71.96417172155203 115.80917172155203 71.6709182326912 116.79499999999999 72.295 C 117.78082827844796 72.91908176730881 118.07408176730878 74.22417172155204 117.44999999999999 75.21000000000001 C 116.81539567669388 76.17797279144877 115.52616669444608 76.46594490088556 114.53999999999999 75.86000000000001 L 114.44999999999999 75.80000000000001 C 113.55642723994521 75.15971703596239 113.30785515708953 73.93866119035556 113.88 73.00000000000001 z M 113.88 99.25 C 114.50408176730879 98.26417172155203 115.80917172155203 97.9709182326912 116.79499999999999 98.595 C 117.78082827844796 99.21908176730881 118.07408176730878 100.52417172155204 117.44999999999999 101.51 C 116.81539567669388 102.47797279144876 115.52616669444608 102.76594490088556 114.53999999999999 102.16000000000001 L 114.44999999999999 102.10000000000001 C 113.53758510896189 101.45385603295789 113.28757115316571 100.20817246372778 113.88 99.26 z" stroke-linecap="round"/>
        </g>
        <g transform="matrix(0.98 0 0 0.98 19.35 27.66)">
          <path style="stroke: none; stroke-width: 1; stroke-dasharray: none; stroke-linecap: butt; stroke-dashoffset: 0; stroke-linejoin: miter; stroke-miterlimit: 4; fill: rgb(0,0,0); fill-rule: nonzero; opacity: 0.07;" vector-effect="non-scaling-stroke" transform=" translate(-87.68, -103.05)" d="M 103.53 108.93 C 101.77245956079759 106.87908816891469 98.87826972950556 106.22282996744676 96.40801475801405 107.31508822909505 C 93.93775978652252 108.40734649074336 92.47562003592412 110.98981758569643 92.81 113.67 C 91.10352237570476 114.35809919766332 89.30969920656432 114.8057136094751 87.48 115 C 86.65406341934566 114.90545960211881 85.87810414783668 114.55592839873638 85.26 114 C 84.02490291616432 113.0936165777262 82.6097266750277 112.46275487987012 81.11 112.15 C 84.82686096742115 108.51870948892454 87.75158609099942 104.15715782035204 89.7 99.34 C 92.63153865678542 99.23584058833718 95.07690065886547 97.06625075664627 95.52942770631653 94.16797758963966 C 95.98195475376758 91.26970442263307 94.31436665903495 88.45793179574811 91.5541127084188 87.4650741990238 C 88.79385875780265 86.47221660229948 85.71730280073905 87.57753049529549 84.22 90.10000000000001 C 82.60644543155342 92.80341739474794 83.30721571630008 96.28996584848748 85.84 98.16000000000001 C 81.79 107.38000000000001 76.62 111.24000000000001 73.27000000000001 112.84 C 73.1446445895353 112.88455228459662 73.02404725216671 112.9415010272429 72.91000000000001 113.01 C 72.09202886407608 113.381141752107 71.23258649436863 113.65307468939724 70.35000000000001 113.82000000000001 L 70.35000000000001 117.82000000000001 C 71.82568423571875 117.67667267295145 73.26445299074037 117.2738174215454 74.60000000000001 116.63000000000001 C 79.95 115.27000000000001 81.44000000000001 116.28000000000002 83.01 117.34 C 84.23474577208968 118.30217068952808 85.71715357360893 118.8798225558478 87.27000000000001 119 L 87.58000000000001 119 C 89.98761569581369 118.7883332595182 92.34845680522926 118.20824087263323 94.58000000000001 117.28 C 95.73575842482344 118.39598405922553 97.28344705439802 119.01362314109751 98.89000000000001 119 C 101.27771991008083 118.99645736688043 103.44535633893649 117.60457426341729 104.44213502727627 115.43486203233286 C 105.43891371561605 113.26514980124843 105.0828025793692 110.71384207381739 103.53000000000002 108.9 z M 87.66 92.15 C 88.17388645798532 91.28460630297022 89.22745265799428 90.90263850369573 90.17653777102976 91.23763550483756 C 91.12562288406522 91.57263250597939 91.70597907932867 92.53132318816174 91.56277082028585 93.5275545554161 C 91.41956256124303 94.52378592267047 90.59266242758648 95.28018350757057 89.58764536618665 95.33427832113732 C 88.58262830478681 95.38837313470408 87.67931492892994 94.72510389639885 87.42999999999999 93.75 C 87.29011032914491 93.20734189229769 87.37291907035488 92.63128108388041 87.66 92.15 z M 100.25999999999999 114.51 C 99.8800820723875 114.84016158617175 99.39333135511477 115.02136075829517 98.88999999999999 115.02000000000001 C 98.00179541933758 115.02684306437627 97.2044123043824 114.47671034023995 96.89547952272211 113.64393501576438 C 96.58654674106182 112.81115969128882 96.83222396421289 111.87408522882276 97.50999999999999 111.30000000000001 C 97.88991792761249 110.96983841382827 98.37666864488521 110.78863924170484 98.88 110.79 C 99.46937219818774 110.79109905953877 100.03168583160262 111.03749562014094 100.43199722269613 111.47005958776806 C 100.83230861378964 111.90262355539517 101.03448202271896 112.48230777988529 100.99 113.07000000000001 C 100.94936592661217 113.62840206899686 100.68638772031089 114.147153599235 100.25999999999999 114.51 z" stroke-linecap="round"/>
        </g>
        <g transform="matrix(0.98 0 0 0.98 11.33 -28.23)">
          <path style="stroke: none; stroke-width: 1; stroke-dasharray: none; stroke-linecap: butt; stroke-dashoffset: 0; stroke-linejoin: miter; stroke-miterlimit: 4; fill: rgb(0,0,0); fill-rule: nonzero; opacity: 0.07;" vector-effect="non-scaling-stroke" transform=" translate(-79.47, -46)" d="M 79.36 46 L 79.57 46 z" stroke-linecap="round"/>
        </g>
        <g transform="matrix(0.98 0 0 0.98 17.62 -28.66)">
          <path style="stroke: none; stroke-width: 1; stroke-dasharray: none; stroke-linecap: butt; stroke-dashoffset: 0; stroke-linejoin: miter; stroke-miterlimit: 4; fill: rgb(0,0,0); fill-rule: nonzero; opacity: 0.07;" vector-effect="non-scaling-stroke" transform=" translate(-85.91, -45.57)" d="M 101.3 33 C 100.76365858346617 30.586612744087628 98.82794380733169 28.732948909128595 96.39360272703667 28.301574748013426 C 93.95926164674164 27.870200586898257 91.50446197429089 28.945849170644856 90.17149678091408 31.027988444405313 C 88.83853158753729 33.11012771816577 88.88922980175165 35.7897715375298 90.3 37.81999999999999 C 87.7412044447159 40.58959981047734 84.13050105926133 42.14794161365642 80.36 42.11 C 77.19015501941408 40.75119357121021 73.80432981912475 39.96568212474308 70.35999999999999 39.79 L 70.36 43.79 C 73.38388472543954 43.98651828662938 76.34615087302728 44.73555812486381 79.1 46 C 82.53084999907242 47.543347937421586 85.49888181360923 49.95638193297997 87.71 53 C 87.57401039522789 53.17325554979558 87.44717066012305 53.35350148915509 87.33 53.54 C 85.52924551556967 56.39856162425347 86.38549262360054 60.17558651121155 89.24291742100361 61.978144360501425 C 92.10034221840668 63.7807022097913 95.87790663668297 62.92683853654779 97.6822671331472 60.07055170367371 C 99.48662762961143 57.214264870799624 98.63514773111959 53.436162425235686 95.78 51.63 C 94.38282897433415 50.774798167398124 92.70469426665667 50.50529045203236 91.11 50.88 C 89.61695126266342 48.768064723396535 87.81713520652124 46.89072850004224 85.77 45.31 C 88.80244980611906 44.399185158081295 91.50519748478315 42.62746110137346 93.55 40.21 C 94.12366976757983 40.38586252807719 94.71998786788619 40.476826306090025 95.32 40.480000000000004 C 97.18001382969562 40.48419065054903 98.94132644761257 39.6436344709612 100.10800723489065 38.19500582675758 C 101.27468802216873 36.74637718255396 101.72053073820629 34.84638215581495 101.32 33.03 z M 90.72999999999999 55.67 C 90.89973609154909 55.401507645546474 91.12898572267234 55.17567965070864 91.39999999999999 55.010000000000005 C 92.16134906460798 54.544346112583824 93.13332269607741 54.60805323385149 93.82737759112328 55.16910024053464 C 94.52143248616915 55.73014724721779 94.78744415263094 56.667179333583206 94.49170709270712 57.50921587223985 C 94.19597003278328 58.35125241089649 93.4024523507996 58.916160390970546 92.50999999999999 58.92 C 92.11297791149593 58.91808543621822 91.72463217775169 58.803662139668575 91.38999999999999 58.59 C 90.40777262220021 57.96143871378279 90.11358863571671 56.659897440249686 90.72999999999999 55.67 z M 97.10999999999999 35.480000000000004 C 96.47539567669386 36.44797279144876 95.18616669444607 36.735944900885556 94.19999999999999 36.13 L 94.1 36.07 C 93.33548500723617 35.52168270088788 93.02635613487007 34.533457124227226 93.34212348715637 33.64721448595237 C 93.65789083944266 32.7609718476775 94.5222536897501 32.19086018045345 95.46124066249024 32.24949890222152 C 96.40022763523038 32.30813762398959 97.18694577329859 32.981357514761605 97.39 33.9 C 97.5145524537146 34.44608161094342 97.41360529915545 35.0193172386186 97.11 35.49 z" stroke-linecap="round"/>
        </g>
        <g transform="matrix(0.98 0 0 0.98 27.52 -1.69)">
          <path style="stroke: none; stroke-width: 1; stroke-dasharray: none; stroke-linecap: butt; stroke-dashoffset: 0; stroke-linejoin: miter; stroke-miterlimit: 4; fill: rgb(0,0,0); fill-rule: nonzero; opacity: 0.07;" vector-effect="non-scaling-stroke" transform=" translate(-96.05, -73.09)" d="M 110 74 C 110.43420708404578 75.06765957463311 111.16673826239774 75.98766318725525 112.11 76.65 L 112.39 76.84 C 114.58993455886603 78.23356554069501 117.43080666335344 78.08232868481969 119.47035031186861 76.46307000094393 C 121.5098939603838 74.84381131706819 122.30135133450064 72.11122607126417 121.44291199699595 69.65260473333306 C 120.58447265949125 67.19398339540194 118.26417597199084 65.54788188498277 115.66 65.55000000000001 L 115.28999999999999 65.55000000000001 C 114.45865757871344 61.842701095269966 114.45865757871344 57.99729890473007 115.28999999999999 54.29000000000002 L 115.63 54.29000000000001 C 118.57255481325413 54.2941581429828 121.10152709220486 52.20361496039517 121.65100113899535 49.312815003452144 C 122.20047518578583 46.42201504650912 120.61488626898738 43.54938917931186 117.87601603793965 42.47364014880395 C 115.13714580689192 41.397891118296045 112.02041143443444 42.42358036826748 110.45566534342814 44.91561082350646 C 108.89091925242182 47.407641278745444 109.3211656335529 50.66047998324472 111.47999999999999 52.66000000000001 L 111.54999999999998 52.72000000000001 C 110.32058049614884 57.44805333536729 110.32058049614884 62.41194666463274 111.54999999999998 67.14000000000001 C 111.40999999999998 67.27000000000001 111.25999999999998 67.39000000000001 111.11999999999998 67.54000000000002 C 110.88767478122588 67.79543239712423 110.67695142143127 68.06970724638073 110.48999999999998 68.36000000000001 C 110.18009558074215 68.85059628371741 109.94106623818061 69.38252073617831 109.77999999999999 69.94000000000001 C 107.32710611414295 70.29988361078067 104.99946966474815 71.2542832168747 102.99999999999997 72.72000000000003 C 100.99999999999999 74.04 98.99999999999999 75.29 93.35999999999999 75.39000000000001 C 91.57964703332443 75.20308329809978 89.78693435687468 75.1629479396718 87.99999999999999 75.27000000000001 C 86.56999999999998 75.32000000000001 85.08999999999999 75.38000000000001 83.14999999999999 75.27000000000001 C 81.82 75.20000000000002 81.05 74.39000000000001 79.69 72.85000000000001 C 77.89 70.80000000000001 75.47 68.2 70.32 67.85000000000001 L 70.32 71.85000000000001 C 73.61 72.15 75.11999999999999 73.74000000000001 76.67999999999999 75.52000000000001 C 78.24 77.30000000000001 79.85 79.14000000000001 82.94 79.30000000000001 C 85.06 79.41000000000001 86.7 79.35000000000001 88.14999999999999 79.30000000000001 C 90.78733490399254 79.10318358894533 93.43910060517875 79.33964677249061 95.99999999999997 80.00000000000001 C 98.60999999999999 80.64000000000001 108.09999999999998 89.67000000000002 110.76999999999998 94.32000000000002 C 110.65999999999998 94.46000000000002 110.54999999999998 94.60000000000002 110.45999999999998 94.75000000000003 C 108.71603003526019 97.49245836198102 109.4284762669548 101.12065676412955 112.07999999999998 103.00000000000003 L 112.35999999999999 103.19000000000003 C 114.55993455886602 104.58356554069503 117.40080666335342 104.43232868481971 119.4403503118686 102.81307000094395 C 121.47989396038379 101.19381131706821 122.27135133450062 98.46122607126419 121.41291199699593 96.00260473333309 C 120.55447265949124 93.54398339540197 118.23417597199082 91.8978818849828 115.62999999999998 91.90000000000003 C 115.11029922862706 91.90164878426528 114.59288189154107 91.96884584102969 114.08999999999997 92.10000000000004 C 111.52999999999997 87.91000000000004 105.43999999999997 81.64000000000004 100.89999999999998 78.31000000000003 C 102.39299126539315 77.76707904381796 103.80837990218515 77.03080799522543 105.10999999999997 76.12000000000003 C 106.5478419407778 75.03387542427328 108.2243903347216 74.30702826779866 109.99999999999997 74.00000000000003 z M 113.88 47.08 C 114.50408176730879 46.09417172155204 115.80917172155203 45.8009182326912 116.79499999999999 46.425 C 117.78082827844796 47.0490817673088 118.07408176730878 48.354171721552035 117.44999999999999 49.339999999999996 C 116.81539567669387 50.307972791448755 115.52616669444608 50.59594490088555 114.53999999999999 49.989999999999995 L 114.44999999999999 49.92999999999999 C 113.53303868676011 49.28681827505461 113.28223380195305 48.03719393671772 113.88 47.08999999999999 z M 113.88 70.53999999999999 C 114.50408176730879 69.55417172155202 115.80917172155203 69.2609182326912 116.79499999999999 69.88499999999999 C 117.78082827844796 70.5090817673088 118.07408176730878 71.81417172155203 117.44999999999999 72.8 C 116.81539567669388 73.76797279144876 115.52616669444608 74.05594490088555 114.53999999999999 73.45 L 114.44999999999999 73.39 C 113.53303868676011 72.74681827505462 113.28223380195305 71.49719393671774 113.88 70.55 z M 113.88 96.83999999999999 C 114.50408176730879 95.85417172155202 115.80917172155203 95.5609182326912 116.79499999999999 96.18499999999999 C 117.78082827844796 96.8090817673088 118.07408176730878 98.11417172155203 117.44999999999999 99.1 C 116.81539567669388 100.06797279144875 115.52616669444608 100.35594490088555 114.53999999999999 99.75 L 114.44999999999999 99.69 C 113.53758510896189 99.04385603295788 113.28757115316571 97.79817246372777 113.88 96.85 z" stroke-linecap="round"/>
        </g>
        <g transform="matrix(0.99 0 0 0.98 19.34 30.58)">
          <path style="stroke: none; stroke-width: 0.992373; stroke-dasharray: none; stroke-linecap: butt; stroke-dashoffset: 0; stroke-linejoin: miter; stroke-miterlimit: 4; fill: rgb(211,86,44); fill-rule: nonzero; opacity: 1;" vector-effect="non-scaling-stroke" transform=" translate(-83.98, -103.22)" d="M 99.602735 109.11 C 97.87190107553428 107.05908792109854 95.02168934105747 106.40282955457096 92.58897063612388 107.49508785541451 C 90.15625193119028 108.58734615625806 88.71632988839168 111.16981745503102 89.04562899999999 113.85 C 87.36508183224667 114.5380992257894 85.5985163595806 114.98571363808053 83.79661999999999 115.17999999999999 C 82.9832339284462 115.08545953620259 82.21906575168414 114.73592833699716 81.61035399999999 114.17999999999999 C 80.3940247364719 113.27361662702049 79.0003526999853 112.64275493138466 77.52341499999999 112.33 C 81.18250343801878 108.69192487163863 84.05952178019592 104.32342926400773 85.97303899999999 99.5 C 88.86003178709248 99.39584030771373 91.26823538882074 97.22625034823317 91.71388593323788 94.3279772290312 C 92.15953647765501 91.42970410982923 90.51728790631705 88.61793164777116 87.7989770494484 87.6250741587989 C 85.08066619257973 86.63221666982662 82.05085971749938 87.7375305677341 80.57630899999998 90.26 C 78.98727307524489 92.96341751465957 79.6773951172752 96.44996599374943 82.17169299999998 98.32000000000001 C 78.18323399999997 107.54 73.09179399999998 111.4 69.79269799999997 113 C 69.66924764075893 113.044552326505 69.55048304976371 113.10150106826995 69.43816899999997 113.17 C 68.6326271913011 113.54114176576238 67.78624431620098 113.81307470330198 66.91706899999997 113.98 L 66.91706899999997 117.98 C 68.37032977726682 117.83667272241411 69.7872360220126 117.43381746983552 71.10248899999996 116.79 C 76.37119299999996 115.43 77.83855199999996 116.44000000000001 79.38469599999996 117.5 C 80.59124026984745 118.47118710765426 82.05501755064482 119.05598581868585 83.58981099999997 119.18 L 83.89510099999997 119.18 C 86.26613194613317 118.96833319665204 88.59109905850254 118.3882408109147 90.78873299999998 117.46000000000001 C 91.9269292592604 118.57598406713433 93.45110020505041 119.19362314962842 95.03324099999996 119.18 C 97.3846787323882 119.17645755191565 99.5193773132074 117.78457451791824 100.50100970930453 115.61486224767978 C 101.48264210540165 113.44514997744133 101.13194224059663 110.89384213915766 99.60273499999997 109.08000000000001 z M 83.973885 92.33 C 84.47996273277872 91.46460627900065 85.51751960443322 91.0826384325694 86.45218304717233 91.41763539257015 C 87.38684648991145 91.75263235257088 87.95838400783404 92.7113230108871 87.81735189068316 93.70755438521174 C 87.67631977353228 94.70378575953637 86.86198471150911 95.46018337989364 85.87223924279733 95.51427823489139 C 84.88249377408557 95.56837308988916 83.99290653853156 94.90510388742187 83.74737999999999 93.92999999999999 C 83.60961598733077 93.38734190067677 83.69116639563929 92.81128109277573 83.973885 92.33 z M 96.382424 114.69 C 96.0082788945855 115.02016172691728 95.52892427599193 115.20136090855738 95.033241 115.2 C 94.15853307895402 115.2068428871351 93.37326664355267 114.65671010002475 93.06902831255564 113.82393481816274 C 92.76478998155862 112.99115953630073 93.00673407181615 112.05408518012874 93.674211 111.48 C 94.04835584591514 111.1498385034137 94.52771006801567 110.96863933734768 95.023393 110.97 C 95.60380950809501 110.9710989901208 96.15757863902932 111.21749552049367 96.5518072016645 111.65005949632366 C 96.9460357642997 112.08262347215366 97.14513710469588 112.66230773660406 97.101331 113.25 C 97.06131447502443 113.80840200915837 96.8023324613557 114.32715353012418 96.382424 114.69 z" stroke-linecap="round"/>
        </g>
        <g transform="matrix(0.99 0 0 0.98 11.33 -25.85)">
          <path style="stroke: none; stroke-width: 0.992373; stroke-dasharray: none; stroke-linecap: butt; stroke-dashoffset: 0; stroke-linejoin: miter; stroke-miterlimit: 4; fill: rgb(0,0,0); fill-rule: nonzero; opacity: 1;" vector-effect="non-scaling-stroke" transform=" translate(-75.9, -45.61)" d="M 75.800007 45.61 L 76.006816 45.61 z" stroke-linecap="round"/>
        </g>
        <g transform="matrix(0.99 0 0 0.98 17.62 -25.72)">
          <path style="stroke: none; stroke-width: 0.992373; stroke-dasharray: none; stroke-linecap: butt; stroke-dashoffset: 0; stroke-linejoin: miter; stroke-miterlimit: 4; fill: rgb(211,86,44); fill-rule: nonzero; opacity: 1;" vector-effect="non-scaling-stroke" transform=" translate(-82.25, -45.75)" d="M 97.406621 33.18 C 96.8784295174844 30.76661270916524 94.9721286187534 28.912948831082996 92.57477820222879 28.481574654472105 C 90.17742778570417 28.05020047786121 87.7599296485086 29.125849078703467 86.44721934171017 31.207988385049557 C 85.13450903491174 33.29012769139564 85.1844369079262 35.96977154316661 86.57377 38 C 84.05385605733898 40.769600030997466 80.49801824443375 42.32794185440927 76.78481099999999 42.29 C 73.66313308040668 40.931193607667225 70.32875685152517 40.14568216194437 66.93676499999998 39.97 L 66.936765 43.97 C 69.9146661070038 44.166742160944814 72.83188021443812 44.91577185941095 75.543958 46.18000000000001 C 78.92267464925041 47.72334806886254 81.84560581177504 50.13638205411987 84.023125 53.17999999999999 C 83.88920206663198 53.35325556790888 83.76428996194205 53.53350150693636 83.6489 53.72 C 81.87550855390094 56.57856162312143 82.71874465119012 60.3555865720492 85.5327498792515 62.158144449510395 C 88.34675510731287 63.96070232697159 92.06691812367575 63.10683862105965 93.84386069590302 60.2505517308749 C 95.62080326813029 57.394264840690155 94.78226182028841 53.61616236081619 91.970499 51.81 C 90.59455840058001 50.95479808586645 88.94192341835351 50.685290367802395 87.37146100000001 51.06 C 85.90109960983705 48.948064712549645 84.12863233110947 47.07072848863015 82.11260399999999 45.48999999999999 C 85.0989749678131 44.579185305973574 87.76065375260326 42.80746123784507 89.77438500000001 40.39000000000001 C 90.33933758066571 40.5658625082547 90.92659433964289 40.65682628604642 91.51748900000001 40.660000000000004 C 93.34923927226146 40.66419071298717 95.08378815593888 39.8236345598775 96.23274084659008 38.3750059070632 C 97.38169353724126 36.926377254248905 97.82076153442118 35.02638219104509 97.42631700000001 33.21 z M 86.997236 55.86 C 87.16439285958194 55.591507657762776 87.39015892181594 55.365679663912275 87.657055 55.2 C 88.40683511113195 54.73434610188379 89.36403928125074 54.798053236465286 90.04754776682924 55.35910027261332 C 90.73105625240775 55.920147308761344 90.99302574919793 56.857179428777485 90.70178247114433 57.69921597113486 C 90.41053919309071 58.541252513492246 89.6290792396946 59.106160458124045 88.750188 59.11 C 88.35919887239233 59.10808540297708 87.97675426456566 58.99366210775912 87.647207 58.78 C 86.67990493687091 58.151438691374814 86.3901912108203 56.849897422506224 86.997236 55.86 z M 93.280289 35.67 C 92.65532775094744 36.63797251131294 91.38568942440934 36.92594459021561 90.414508 36.32 L 90.316028 36.26 C 89.56312991189465 35.71168280394845 89.25869819062825 34.72345717155471 89.56966729231917 33.837214426691354 C 89.88063639401008 32.95097168182799 90.73186500781544 32.38085992220598 91.65658381979237 32.43949866107206 C 92.58130263176932 32.498137399938145 93.3560663436063 33.17135741057297 93.55603500000001 34.089999999999996 C 93.67593413091188 34.63291807067914 93.57661985554527 35.20198207938008 93.28029000000001 35.669999999999995 z" stroke-linecap="round"/>
        </g>
        <g transform="matrix(0.99 0 0 0.98 27.52 1.25)">
          <path style="stroke: none; stroke-width: 0.992373; stroke-dasharray: none; stroke-linecap: butt; stroke-dashoffset: 0; stroke-linejoin: miter; stroke-miterlimit: 4; fill: rgb(211,86,44); fill-rule: nonzero; opacity: 1;" vector-effect="non-scaling-stroke" transform=" translate(-92.24, -73.27)" d="M 105.97442 74.18 C 106.40202975309842 75.24765986335 107.12343064848369 76.1676635077146 108.05236 76.83000000000001 L 108.32809999999999 77.02000000000001 C 110.4946048491605 78.41356496010485 113.29230756145292 78.26232887522258 115.30085954693759 76.64307186890483 C 117.30941153242226 75.02381486258707 118.08884402023253 72.29123152075215 117.24345169466407 69.83261037817347 C 116.39805936909562 67.3739892355948 114.11302350754053 65.72788569434536 111.54842 65.73000000000002 L 111.18404 65.73000000000002 C 110.36533013859868 62.02270109526997 110.36533013859868 58.17729890473008 111.18404 54.47000000000003 L 111.51886999999999 54.47000000000002 C 114.41671156577111 54.47415778014635 116.90725490873683 52.38361438426212 117.44837922343692 49.49281444613218 C 117.989503538137 46.602014508002235 116.42800804117435 43.72938884497262 113.73075592740152 42.65364000954813 C 111.03350381362867 41.57789117412365 107.96412947467063 42.60358053944624 106.42316037623957 45.09561098316679 C 104.88219127780849 47.587641426887345 105.30589994852143 50.840480031973634 107.43193 52.84000000000002 L 107.50083 52.90000000000002 C 106.29009196535455 57.6280533353673 106.29009196535453 62.591946664632744 107.50083 67.32000000000002 C 107.36295999999999 67.45000000000002 107.21522999999999 67.57000000000002 107.07736 67.72000000000003 C 106.84856744011007 67.9754326681617 106.64104841923577 68.24970750958673 106.45694 68.54000000000002 C 106.15174165247399 69.0305957857035 105.91634150615714 69.56252026037619 105.75772 70.12000000000002 C 103.34209992450111 70.47988419616944 101.04983400106322 71.4342837753735 99.080748 72.90000000000002 C 97.111139 74.22000000000001 95.14153 75.47000000000001 89.587232 75.57000000000002 C 87.8339320947633 75.38308328675933 86.06846028900233 75.3429479283209 84.30867900000001 75.45000000000002 C 82.900408 75.50000000000001 81.442897 75.56000000000002 79.532376 75.45000000000002 C 78.22258599999999 75.38000000000002 77.464287 74.57000000000002 76.124952 73.03000000000002 C 74.35230399999999 70.98000000000002 71.969077 68.38000000000001 66.89733299999999 68.03000000000002 L 66.89733299999999 72.03000000000002 C 70.13734 72.33000000000001 71.62439499999999 73.92000000000002 73.16068999999999 75.70000000000002 C 74.69698599999998 77.48000000000002 76.28252099999999 79.32000000000002 79.32556699999999 79.48000000000002 C 81.41335299999999 79.59000000000002 83.02843299999999 79.53000000000002 84.45639999999999 79.48000000000002 C 87.05365950957942 79.28318362248712 89.66513053036863 79.51964680578766 92.18711599999999 80.18 C 94.75745599999999 80.82000000000002 104.10324999999999 89.85000000000002 106.73267999999999 94.50000000000003 C 106.62434999999999 94.64000000000003 106.51601999999998 94.78000000000003 106.42738999999999 94.93000000000004 C 104.7099195666064 97.67245746138994 105.4115383363561 101.30065566522539 108.02277 103.18000000000004 L 108.29852 103.37000000000003 C 110.46502588395569 104.76356561795998 113.26273009116595 104.61232865947912 115.27128214930553 102.99306975235135 C 117.27983420744512 101.37381084522357 118.05926489025164 98.64122534603698 117.21386948540567 96.18260398210862 C 116.36847408055968 93.72398261818026 114.08343472493863 92.0778813780274 111.51883 92.08000000000004 C 111.0070259828779 92.08164871185625 110.49747069697376 92.14884576920876 110.00223 92.28000000000004 C 107.48113 88.09000000000005 101.48366999999999 81.82000000000005 97.012659 78.49000000000004 C 98.48296492995343 77.94707933043416 99.87684740812247 77.21080827332189 101.15868999999999 76.30000000000004 C 102.57468205218925 75.21387608470575 104.2257530079669 74.48702896077363 105.97438 74.18000000000004 z M 109.79545999999999 47.260000000000005 C 110.19303560211391 46.62227958309442 110.8954606435423 46.24837840036854 111.63813840941148 46.279141408652855 C 112.38081617528069 46.309904416937165 113.05091624565621 46.74065798346295 113.39601840941148 47.40914140865285 C 113.74112057316677 48.077624833842755 113.70879560211391 48.882279583094416 113.31121999999999 49.52 C 112.68625827723483 50.48797796675351 111.41661334171972 50.77595064028675 110.44542999999999 50.17 L 110.35682999999999 50.11 C 109.45380179109854 49.46681870452034 109.20680736490856 48.21719428726955 109.79548999999999 47.269999999999996 z M 109.79545999999999 70.72 C 110.41005862957627 69.73416965176179 111.69531894417166 69.44091448500446 112.66616926020421 70.06499625231325 C 113.63701957623677 70.68907801962204 113.92581862957627 71.9941696517618 113.31121999999999 72.98 C 112.68625827723483 73.94797796675351 111.41661334171972 74.23595064028676 110.44542999999999 73.63000000000001 L 110.35682999999999 73.57000000000001 C 109.45380179109854 72.92681870452034 109.20680736490856 71.67719428726956 109.79548999999999 70.73 z M 109.79545999999999 97.02 C 110.41005862957627 96.03416965176179 111.69531894417166 95.74091448500445 112.66616926020421 96.36499625231325 C 113.63701957623677 96.98907801962204 113.92581862957627 98.29416965176179 113.31121999999999 99.28 C 112.68625827723483 100.24797796675351 111.41661334171972 100.53595064028676 110.44542999999999 99.93 L 110.35682999999999 99.87 C 109.45827911039721 99.22385645458456 109.212063597079 97.9781728086236 109.79548999999999 97.03 z" stroke-linecap="round"/>
        </g>
        <g transform="matrix(0.99 0 0 0.98 19.35 27.66)">
          <path style="stroke: none; stroke-width: 0.992373; stroke-dasharray: none; stroke-linecap: butt; stroke-dashoffset: 0; stroke-linejoin: miter; stroke-miterlimit: 4; fill: rgb(255,254,219); fill-rule: nonzero; opacity: 1;" vector-effect="non-scaling-stroke" transform=" translate(-83.99, -100.23)" d="M 99.602735 106.11 C 97.87190107553428 104.05908792109854 95.02168934105747 103.40282955457096 92.58897063612388 104.49508785541451 C 90.15625193119028 105.58734615625806 88.71632988839168 108.16981745503102 89.04562899999999 110.85 C 87.36508183224667 111.5380992257894 85.5985163595806 111.98571363808053 83.79661999999999 112.17999999999999 C 82.9832339284462 112.08545953620259 82.21906575168414 111.73592833699716 81.61035399999999 111.17999999999999 C 80.3940247364719 110.27361662702049 79.0003526999853 109.64275493138466 77.52341499999999 109.33 C 81.18379698403575 105.6987094949015 84.06407990522742 101.33715782590073 85.98288699999999 96.51999999999998 C 88.86987978709249 96.41584030771372 91.27808338882075 94.24625034823316 91.72373393323788 91.3479772290312 C 92.16938447765502 88.44970410982923 90.52713590631706 85.63793164777115 87.8088250494484 84.64507415879888 C 85.09051419257973 83.65221666982661 82.06070771749938 84.7575305677341 80.58615699999999 87.28 C 78.99712107524489 89.98341751465956 79.6872431172752 93.46996599374941 82.18154099999998 95.34 C 78.19308199999998 104.56 73.10164199999998 108.42 69.80254599999998 110.02000000000001 C 69.67909564075893 110.06455232650501 69.56033104976372 110.12150106826996 69.44801699999998 110.19000000000001 C 68.6424751913011 110.56114176576239 67.79609231620098 110.83307470330199 66.92691699999997 111.00000000000001 L 66.92691699999997 115.00000000000001 C 68.38017777726682 114.85667272241412 69.79708402201261 114.45381746983553 71.11233699999997 113.81000000000002 C 76.38104099999997 112.45000000000002 77.84839999999997 113.46000000000002 79.39454399999997 114.52000000000001 C 80.6006791064745 115.48217054317658 82.06056090018892 116.0598224012266 83.58981099999997 116.18 L 83.89510099999997 116.18 C 86.26613194613317 115.96833319665204 88.59109905850254 115.3882408109147 90.78873299999998 114.46000000000001 C 91.9269292592604 115.57598406713433 93.45110020505041 116.19362314962842 95.03324099999996 116.18 C 97.3846787323882 116.17645755191565 99.5193773132074 114.78457451791824 100.50100970930453 112.61486224767978 C 101.48264210540165 110.44514997744133 101.13194224059663 107.89384213915766 99.60273499999997 106.08000000000001 z M 83.973885 89.33 C 84.47996273277872 88.46460627900065 85.51751960443322 88.0826384325694 86.45218304717233 88.41763539257015 C 87.38684648991145 88.75263235257088 87.95838400783404 89.7113230108871 87.81735189068316 90.70755438521174 C 87.67631977353228 91.70378575953637 86.86198471150911 92.46018337989364 85.87223924279733 92.51427823489139 C 84.88249377408557 92.56837308988916 83.99290653853156 91.90510388742187 83.74737999999999 90.92999999999999 C 83.60961598733077 90.38734190067677 83.69116639563929 89.81128109277573 83.973885 89.33 z M 96.382424 111.69 C 96.0082788945855 112.02016172691728 95.52892427599193 112.20136090855738 95.033241 112.2 C 94.15853307895402 112.2068428871351 93.37326664355267 111.65671010002475 93.06902831255564 110.82393481816274 C 92.76478998155862 109.99115953630073 93.00673407181615 109.05408518012874 93.674211 108.48 C 94.04835584591514 108.1498385034137 94.52771006801567 107.96863933734768 95.023393 107.97 C 95.60380950809501 107.9710989901208 96.15757863902932 108.21749552049367 96.5518072016645 108.65005949632366 C 96.9460357642997 109.08262347215366 97.14513710469588 109.66230773660406 97.101331 110.25 C 97.06131447502443 110.80840200915837 96.8023324613557 111.32715353012418 96.382424 111.69 z" stroke-linecap="round"/>
        </g>
        <g transform="matrix(0.99 0 0 0.98 11.33 -28.23)">
          <path style="stroke: none; stroke-width: 0.992373; stroke-dasharray: none; stroke-linecap: butt; stroke-dashoffset: 0; stroke-linejoin: miter; stroke-miterlimit: 4; fill: rgb(255,254,219); fill-rule: nonzero; opacity: 1;" vector-effect="non-scaling-stroke" transform=" translate(-75.9, -43.18)" d="M 75.800007 43.18 L 76.006816 43.18 z" stroke-linecap="round"/>
        </g>
        <g transform="matrix(0.99 0 0 0.98 17.62 -28.66)">
          <path style="stroke: none; stroke-width: 0.992373; stroke-dasharray: none; stroke-linecap: butt; stroke-dashoffset: 0; stroke-linejoin: miter; stroke-miterlimit: 4; fill: rgb(255,254,219); fill-rule: nonzero; opacity: 1;" vector-effect="non-scaling-stroke" transform=" translate(-82.25, -42.75)" d="M 97.406621 30.18 C 96.8784295174844 27.76661270916524 94.9721286187534 25.912948831082996 92.57477820222879 25.481574654472105 C 90.17742778570417 25.05020047786121 87.7599296485086 26.125849078703467 86.44721934171017 28.207988385049557 C 85.13450903491174 30.290127691395643 85.1844369079262 32.96977154316661 86.57377 35 C 84.05385605733898 37.769600030997466 80.49801824443375 39.32794185440927 76.78481099999999 39.29 C 73.66313308040668 37.931193607667225 70.32875685152517 37.14568216194437 66.93676499999998 36.97 L 66.936765 40.97 C 69.91470086003785 41.16651822873941 72.83195446344574 41.9155580682703 75.54395799999999 43.17999999999999 C 78.92267464925041 44.72334806886254 81.84560581177504 47.13638205411987 84.023125 50.17999999999999 C 83.88920206663198 50.35325556790888 83.76428996194205 50.53350150693636 83.6489 50.72 C 81.87550855390094 53.57856162312143 82.71874465119012 57.3555865720492 85.5327498792515 59.158144449510395 C 88.34675510731287 60.96070232697159 92.06691812367575 60.10683862105965 93.84386069590302 57.2505517308749 C 95.62080326813029 54.394264840690155 94.78226182028841 50.61616236081619 91.970499 48.81 C 90.59455840058001 47.95479808586645 88.94192341835351 47.685290367802395 87.37146100000001 48.06 C 85.90109960983705 45.948064712549645 84.12863233110947 44.07072848863015 82.11260399999999 42.48999999999999 C 85.0989749678131 41.579185305973574 87.76065375260326 39.80746123784507 89.77438500000001 37.39000000000001 C 90.33933758066571 37.5658625082547 90.92659433964289 37.65682628604642 91.51748900000001 37.660000000000004 C 93.34923927226146 37.66419071298717 95.08378815593888 36.8236345598775 96.23274084659008 35.3750059070632 C 97.38169353724126 33.926377254248905 97.82076153442118 32.02638219104509 97.42631700000001 30.21 z M 86.997236 52.85 C 87.16439285958194 52.58150765776278 87.39015892181594 52.35567966391228 87.657055 52.190000000000005 C 88.40683511113195 51.724346101883796 89.36403928125074 51.7880532364653 90.04754776682924 52.34910027261333 C 90.73105625240774 52.91014730876136 90.99302574919791 53.847179428777494 90.70178247114431 54.68921597113487 C 90.4105391930907 55.531252513492255 89.6290792396946 56.09616045812405 88.750188 56.10000000000001 C 88.35919887239233 56.09808540297709 87.97675426456566 55.98366210775913 87.647207 55.77000000000001 C 86.67990493687091 55.14143869137482 86.3901912108203 53.83989742250623 86.997236 52.85000000000001 z M 93.280289 32.66 C 92.65532775094744 33.62797251131293 91.38568942440934 33.9159445902156 90.414508 33.309999999999995 L 90.316028 33.24999999999999 C 89.56312991189465 32.701682803948444 89.25869819062825 31.71345717155471 89.56966729231917 30.827214426691345 C 89.88063639401008 29.940971681827985 90.73186500781544 29.370859922205973 91.65658381979237 29.429498661072053 C 92.58130263176932 29.488137399938136 93.3560663436063 30.16135741057297 93.55603500000001 31.07999999999999 C 93.67869492712833 31.62608156933953 93.57928180933564 32.19931719388529 93.28029000000001 32.669999999999995 z" stroke-linecap="round"/>
        </g>
        <g transform="matrix(0.99 0 0 0.98 27.52 -1.69)">
          <path style="stroke: none; stroke-width: 0.992373; stroke-dasharray: none; stroke-linecap: butt; stroke-dashoffset: 0; stroke-linejoin: miter; stroke-miterlimit: 4; fill: rgb(255,254,219); fill-rule: nonzero; opacity: 1;" vector-effect="non-scaling-stroke" transform=" translate(-92.24, -70.27)" d="M 105.97442 71.18 C 106.40202975309842 72.24765986335 107.12343064848369 73.1676635077146 108.05236 73.83000000000001 L 108.32809999999999 74.02000000000001 C 110.4946048491605 75.41356496010484 113.2923075614529 75.26232887522256 115.30085954693757 73.64307186890481 C 117.30941153242225 72.02381486258706 118.08884402023251 69.29123152075213 117.24345169466406 66.83261037817347 C 116.3980593690956 64.3739892355948 114.11302350754053 62.72788569434535 111.54842 62.73000000000001 L 111.18404 62.73000000000001 C 110.36533013859868 59.022701095269966 110.36533013859868 55.17729890473007 111.18404 51.47000000000003 L 111.51886999999999 51.47000000000001 C 114.41671156577111 51.47415778014634 116.90725490873683 49.38361438426211 117.44837922343692 46.49281444613217 C 117.989503538137 43.60201450800223 116.42800804117435 40.729388844972604 113.73075592740152 39.65364000954813 C 111.03350381362867 38.577891174123636 107.96412947467063 39.603580539446234 106.42316037623957 42.095610983166786 C 104.88219127780849 44.58764142688734 105.30589994852143 47.84048003197363 107.43193 49.84000000000001 L 107.50083 49.90000000000001 C 106.29009196535455 54.628053335367284 106.29009196535455 59.59194666463273 107.50083 64.32000000000001 C 107.36295999999999 64.45 107.21522999999999 64.57000000000001 107.07736 64.72000000000001 C 106.84856744011007 64.97543266816169 106.64104841923577 65.24970750958671 106.45694 65.54 C 106.15174165247399 66.03059578570348 105.91634150615714 66.56252026037617 105.75772 67.12 C 103.34209992450111 67.47988419616942 101.04983400106322 68.43428377537349 99.080748 69.9 C 97.111139 71.22 95.14153 72.47 89.587232 72.57000000000001 C 87.8339320947633 72.38308328675932 86.06846028900233 72.34294792832088 84.30867900000001 72.45 C 82.900408 72.5 81.442897 72.56 79.532376 72.45 C 78.22258599999999 72.38000000000001 77.464287 71.57000000000001 76.124952 70.03 C 74.35230399999999 67.98 71.969077 65.38 66.89733299999999 65.03 L 66.89733299999999 69.03 C 70.13734 69.33 71.62439499999999 70.92 73.16068999999999 72.7 C 74.69698599999998 74.48 76.28252099999999 76.32000000000001 79.32556699999999 76.48 C 81.41335299999999 76.59 83.02843299999999 76.53 84.45639999999999 76.48 C 87.05365950957942 76.2831836224871 89.66513053036863 76.51964680578764 92.18711599999999 77.18 C 94.75745599999999 77.82000000000001 104.10324999999999 86.85000000000001 106.73267999999999 91.5 C 106.62434999999999 91.64 106.51601999999998 91.78 106.42738999999999 91.93 C 104.7099195666064 94.67245746138991 105.4115383363561 98.30065566522536 108.02277 100.18 L 108.29852 100.37 C 110.46502588395569 101.76356561795996 113.26273009116595 101.61232865947909 115.27128214930553 99.99306975235132 C 117.27983420744512 98.37381084522355 118.05926489025164 95.64122534603695 117.21386948540567 93.18260398210859 C 116.36847408055968 90.72398261818023 114.08343472493863 89.07788137802737 111.51883 89.08000000000001 C 111.0070259828779 89.08164871185622 110.49747069697376 89.14884576920873 110.00223 89.28000000000002 C 107.48113 85.09000000000002 101.48366999999999 78.82000000000002 97.012659 75.49000000000001 C 98.48296492995343 74.94707933043414 99.87684740812247 74.21080827332186 101.15868999999999 73.30000000000001 C 102.57468205218925 72.21387608470572 104.2257530079669 71.4870289607736 105.97438 71.18 z M 109.79545999999999 44.260000000000005 C 110.19303560211391 43.62227958309442 110.8954606435423 43.24837840036854 111.63813840941148 43.279141408652855 C 112.38081617528069 43.309904416937165 113.05091624565621 43.74065798346295 113.39601840941148 44.40914140865285 C 113.74112057316677 45.077624833842755 113.70879560211391 45.882279583094416 113.31121999999999 46.52 C 112.68625827723483 47.48797796675351 111.41661334171972 47.77595064028675 110.44542999999999 47.17 L 110.35682999999999 47.11 C 109.45380179109854 46.46681870452034 109.20680736490856 45.21719428726955 109.79548999999999 44.269999999999996 z M 109.79545999999999 67.72 C 110.41005862957627 66.73416965176179 111.69531894417166 66.44091448500446 112.66616926020421 67.06499625231325 C 113.63701957623677 67.68907801962204 113.92581862957627 68.9941696517618 113.31121999999999 69.98 C 112.68625827723483 70.94797796675351 111.41661334171972 71.23595064028676 110.44542999999999 70.63000000000001 L 110.35682999999999 70.57000000000001 C 109.45380179109854 69.92681870452034 109.20680736490856 68.67719428726956 109.79548999999999 67.73 z M 109.79545999999999 94.02 C 110.41005862957627 93.03416965176179 111.69531894417166 92.74091448500445 112.66616926020421 93.36499625231325 C 113.63701957623677 93.98907801962204 113.92581862957627 95.29416965176179 113.31121999999999 96.28 C 112.68625827723483 97.24797796675351 111.41661334171972 97.53595064028676 110.44542999999999 96.93 L 110.35682999999999 96.87 C 109.45827911039721 96.22385645458456 109.212063597079 94.9781728086236 109.79548999999999 94.03 z" stroke-linecap="round"/>
        </g>
      </g>
    </g>
    <g transform="matrix(1.59 0 0 1.59 525.05 546.5)" id="SvgjsG1000">
      <path style="stroke: rgb(0,0,0); stroke-width: 50; stroke-dasharray: none; stroke-linecap: butt; stroke-dashoffset: 0; stroke-linejoin: miter; stroke-miterlimit: 4; fill: rgb(0,0,0); fill-opacity: 0; fill-rule: nonzero; opacity: 1;" vector-effect="stroke" transform=" translate(-242.41, -243.41)" d="M 280 278 C 339.0020201341242 217.8970183967004 338.3331132321708 121.41026244351025 278.50346093755456 62.1310967626448 C 218.67380864293835 2.8519310817793553 122.18499170052982 3.0749016366383444 62.62994666858407 62.62994666858407 C 3.0749016366382875 122.18499170052982 2.8519310817792984 218.6738086429383 62.131096762644745 278.50346093755456 C 121.41026244351019 338.3331132321708 217.89701839670036 339.0020201341242 278 280 L 448 450 M 357 333 L 467 443 L 441 469 L 331 359" stroke-linecap="round"/>
    </g>
    <g transform="matrix(0.93 0 0 0.93 412.07 428.43)">
      <g style="" vector-effect="non-scaling-stroke">
        <g transform="matrix(1 0 0 1 0 0)">
          <path style="stroke: none; stroke-width: 1; stroke-dasharray: none; stroke-linecap: butt; stroke-dashoffset: 0; stroke-linejoin: miter; stroke-miterlimit: 4; fill: rgb(30,215,96); fill-rule: nonzero; opacity: 1;" vector-effect="non-scaling-stroke" transform=" translate(-248, -256)" d="M 248 8 C 111.1 8 0 119.1 0 256 C 0 392.9 111.1 504 248 504 C 384.9 504 496 392.9 496 256 C 496 119.10000000000002 384.9 8 248 8 Z" stroke-linecap="round"/>
        </g>
        <g transform="matrix(1 0 0 1 5.2 -0.85)">
          <path style="stroke: none; stroke-width: 1; stroke-dasharray: none; stroke-linecap: butt; stroke-dashoffset: 0; stroke-linejoin: miter; stroke-miterlimit: 4; fill: rgb(0,0,0); fill-rule: nonzero; opacity: 1;" vector-effect="non-scaling-stroke" transform=" translate(-253.2, -255.15)" d="M 406.6 231.1 C 401.40000000000003 231.1 398.20000000000005 229.79999999999998 393.70000000000005 227.2 C 322.50000000000006 184.7 195.20000000000005 174.5 112.80000000000007 197.5 C 109.20000000000007 198.5 104.70000000000007 200.1 99.90000000000006 200.1 C 86.70000000000006 200.1 76.60000000000007 189.79999999999998 76.60000000000007 176.5 C 76.60000000000007 162.9 85.00000000000007 155.2 94.00000000000006 152.6 C 129.20000000000005 142.29999999999998 168.60000000000005 137.4 211.50000000000006 137.4 C 284.50000000000006 137.4 361.00000000000006 152.6 416.9000000000001 185.2 C 424.7000000000001 189.7 429.80000000000007 195.89999999999998 429.80000000000007 207.79999999999998 C 429.80000000000007 221.39999999999998 418.80000000000007 231.1 406.6000000000001 231.1 z M 375.6 307.3 C 370.40000000000003 307.3 366.90000000000003 305 363.3 303.1 C 300.8 266.1 207.60000000000002 251.20000000000002 124.70000000000002 273.70000000000005 C 119.90000000000002 275.00000000000006 117.30000000000001 276.30000000000007 112.80000000000001 276.30000000000007 C 102.10000000000001 276.30000000000007 93.4 267.6000000000001 93.4 256.9000000000001 C 93.4 246.2000000000001 98.60000000000001 239.10000000000008 108.9 236.2000000000001 C 136.70000000000002 228.4000000000001 165.10000000000002 222.6000000000001 206.7 222.6000000000001 C 271.6 222.6000000000001 334.29999999999995 238.7000000000001 383.7 268.10000000000014 C 391.8 272.90000000000015 395 279.10000000000014 395 287.8000000000001 C 394.9 298.60000000000014 386.5 307.3000000000001 375.6 307.3000000000001 z M 348.70000000000005 372.9 C 344.50000000000006 372.9 341.90000000000003 371.59999999999997 338.00000000000006 369.29999999999995 C 275.6000000000001 331.69999999999993 203.00000000000006 330.09999999999997 131.30000000000007 344.79999999999995 C 127.40000000000006 345.79999999999995 122.30000000000007 347.4 119.40000000000006 347.4 C 109.70000000000006 347.4 103.60000000000007 339.7 103.60000000000007 331.59999999999997 C 103.60000000000007 321.29999999999995 109.70000000000006 316.4 117.20000000000006 314.79999999999995 C 199.10000000000008 296.69999999999993 282.80000000000007 298.29999999999995 354.20000000000005 340.99999999999994 C 360.30000000000007 344.8999999999999 363.90000000000003 348.3999999999999 363.90000000000003 357.49999999999994 C 363.90000000000003 366.59999999999997 356.8 372.8999999999999 348.70000000000005 372.8999999999999 z" stroke-linecap="round"/>
        </g>
      </g>
    </g>
  </svg>
</svg>